<?xml version="1.0" encoding="UTF-8" standalone="no"?>
<svg xmlns:xlink="http://www.w3.org/1999/xlink" height="559.95px" width="1672.4px" xmlns="http://www.w3.org/2000/svg">
  <g transform="matrix(1, 0, 0, 1, 733.65, 124.8)">
    <path d="M337.6 170.7 L337.6 196.0 938.7 196.0 938.7 170.7 337.6 170.7" fill="#000000" fill-rule="evenodd" stroke="none">
      <animate attributeName="fill" dur="2s" repeatCount="indefinite" values="#000000;#7d00c6"/>
      <animate attributeName="fill-opacity" dur="2s" repeatCount="indefinite" values="1.0;0.54901963"/>
      <animate attributeName="d" dur="2s" repeatCount="indefinite" values="M337.6 170.7 L337.6 196.0 938.7 196.0 938.7 170.7 337.6 170.7;M337.6 170.7 L337.6 196.0 938.7 196.0 938.7 170.7 337.6 170.7"/>
    </path>
    <path d="M-721.15 125.45 L-721.15 -32.9 Q-721.15 -46.0 -717.0 -58.8 -712.25 -73.4 -702.9 -84.55 -679.75 -112.2 -635.0 -112.15 L530.4 -112.3 Q575.25 -112.3 601.9 -94.25 633.65 -72.75 634.85 -28.15 L634.85 162.25 M302.8 422.65 L532.35 422.65 Q563.85 422.65 587.45 410.6 612.1 398.05 623.65 374.5 627.7 366.2 630.8 354.7 634.3 341.7 634.85 330.5 L634.85 202.6" fill="none" stroke="#000000" stroke-linecap="butt" stroke-linejoin="round" stroke-width="25.05">
      <animate attributeName="stroke" dur="2s" repeatCount="indefinite" values="#000000;#7d00c6"/>
      <animate attributeName="stroke-width" dur="2s" repeatCount="indefinite" values="25.05;25.05"/>
      <animate attributeName="fill-opacity" dur="2s" repeatCount="indefinite" values="1.0;0.54901963"/>
      <animate attributeName="d" dur="2s" repeatCount="indefinite" values="M-721.15 125.45 L-721.15 -32.9 Q-721.15 -46.0 -717.0 -58.8 -712.25 -73.4 -702.9 -84.55 -679.75 -112.2 -635.0 -112.15 L530.4 -112.3 Q575.25 -112.3 601.9 -94.25 633.65 -72.75 634.85 -28.15 L634.85 162.25 M302.8 422.65 L532.35 422.65 Q563.85 422.65 587.45 410.6 612.1 398.05 623.65 374.5 627.7 366.2 630.8 354.7 634.3 341.7 634.85 330.5 L634.85 202.6;M-721.15 125.45 L-721.15 -32.9 Q-721.15 -46.0 -717.0 -58.8 -712.25 -73.4 -702.9 -84.55 -679.75 -112.2 -635.0 -112.15 L530.4 -112.3 Q575.25 -112.3 601.9 -94.25 633.65 -72.75 634.85 -28.15 L634.85 162.25 M302.8 422.65 L532.35 422.65 Q563.85 422.65 587.45 410.6 612.1 398.05 623.65 374.5 627.7 366.2 630.8 354.7 634.3 341.7 634.85 330.5 L634.85 202.6"/>
    </path>
    <path d="M337.6 170.7 L938.7 170.7 938.7 196.0 337.6 196.0 337.6 170.7 938.7 170.7 938.7 196.0 337.6 196.0 337.6 170.7" fill="none" stroke="#000000" stroke-linecap="round" stroke-linejoin="round" stroke-opacity="0.0" stroke-width="1.0">
      <animate attributeName="stroke" dur="2s" repeatCount="indefinite" values="#000000;#7d00c6"/>
      <animate attributeName="stroke-width" dur="2s" repeatCount="indefinite" values="0.0;0.1"/>
      <animate attributeName="fill-opacity" dur="2s" repeatCount="indefinite" values="0.0;0.54901963"/>
      <animate attributeName="d" dur="2s" repeatCount="indefinite" values="M337.6 170.7 L938.7 170.7 938.7 196.0 337.6 196.0 337.6 170.7 938.7 170.7 938.7 196.0 337.6 196.0 337.6 170.7;M337.6 170.7 L938.7 170.7 938.7 196.0 337.6 196.0 337.6 170.7 938.7 170.7 938.7 196.0 337.6 196.0 337.6 170.7"/>
    </path>
  </g>
</svg>
